General                          : ChattChitto RG - Movies [R2L]
===========
Complete name                    : The King's Speech 2010 720p BRRip H264 [ChattChitto RG]
Format                           : MPEG-4
Format profile                   : Base Media
Codec ID                         : isom
File size                        : 1.27 GiB
Duration                         : 1h 58mn
Overall bit rate                 : 2 744 Kbps
Encoded date                     : UTC 2011-03-23 18:11:59

Video
===========
ID                               : 1
Format                           : AVC
Format/Info                      : Advanced Video Codec
Format profile                   : High@L4.1
Format settings, CABAC           : Yes
Format settings, ReFrames        : 4 frames
Codec ID                         : avc1
Codec ID/Info                    : Advanced Video Coding
Duration                         : 1h 58mn
Bit rate mode                    : Variable
Bit rate                         : 2 400 Kbps
Maximum bit rate                 : 13.3 Mbps
Width                            : 1 280 pixels
Height                           : 720 pixels
Display aspect ratio             : 16:9
Frame rate mode                  : Constant
Frame rate                       : 23.976 fps
Color space                      : YUV
Chroma subsampling               : 4:2:0
Bit depth                        : 8 bits
Scan type                        : Progressive
Bits/(Pixel*Frame)               : 0.109
Stream size                      : 1.99 GiB (87%)
Writing library                  : x264 core 107 r1745 4785e8e
Encoded date                     : UTC 2011-03-24 15:55:07

Audio
===========
ID                               : 2
Format                           : AAC
Format/Info                      : Advanced Audio Codec
Format profile                   : LC
Codec ID                         : 40
Duration                         : 1h 58mn
Bit rate mode                    : Variable
Bit rate                         : 340 Kbps
Maximum bit rate                 : 436 Kbps
Channel(s)                       : 6 channels
Channel positions                : Front: L C R, Side: L R, LFE
Sampling rate                    : 48.0 KHz
Compression mode                 : Lossy
Stream size                      : 288 MiB (12%)
Encoded date                     : UTC 2011-03-23 18:12:35

Subtitles                        : English | French | Spanish


----------------------------------------------------
IMDB Link: http://www.imdb.com/title/tt1504320/
----------------------------------------------------



Screen Shots:
==============    
http://chattchitto.net/chattchittorg/movies/brrip/2011/the_kings_speech/1.png 
http://chattchitto.net/chattchittorg/movies/brrip/2011/the_kings_speech/2.png 
http://chattchitto.net/chattchittorg/movies/brrip/2011/the_kings_speech/3.png 
http://chattchitto.net/chattchittorg/movies/brrip/2011/the_kings_speech/4.png 
http://chattchitto.net/chattchittorg/movies/brrip/2011/the_kings_speech/5.png 
http://chattchitto.net/chattchittorg/movies/brrip/2011/the_kings_speech/6.png 
http://chattchitto.net/chattchittorg/movies/brrip/2011/the_kings_speech/7.png



ScreenShots Comparison:
=========================  
http://screenshotcomparison.com/comparison/38522



Plot:
======
The story of King George VI of Britain, his impromptu ascension to the throne and the speech therapist who helped the unsure monarch become worthy of it.



Release Info:
==============
original name .... : The King's Speech 2010 720p BRRip H264 [ChattChitto RG]
ripper.............: AMIABLE
encoder............: Recalled2Life (R2L)
video codec........: H264/.MP4
video bitrate......: 2400
audio codec........: AAC-LC
aspect ratio.......: 16:9
resolution.........: 1280 x 720
genre..............: Biography | Drama | History
runtime............: 1h 58mn
language...........: English
rating.............: PG-13
subtitles..........: English | French | Spanish
sample.............: Yes
2ch Audio..........: 2ch Audio for XBox Viewers
Compatibility .....: XBox | PS3 | WD Live



Source:
========
The.Kings.Speech.2010.720p.BluRay.X264-AMIABLE THANKS!!



Notes:
=======
ChattChitto RG Encourages Burning this Film with ConvertXtoDVD and Playing with VLC media player.
XBox 360 | PS3 | WD Live - Compatible 
Enhanced for your viewing pleasure ;)